<svg xmlns="http://www.w3.org/2000/svg" width="1952" height="470" fill="none"><path fill="#ED4746" fill-rule="evenodd" d="M0 235v235h467V0H0v235zm869-111v22h83v221h48V146h83v-44H869v22zm300 110.5V367h185v-44h-138V102h-47v132.5zm270 0V367h196v-43h-154v-69h118v-43h-118v-67h154v-43h-196v132.5zm289 0V367h47v-92l28.75.054 28.75.055 32.06 45.695 32.07 45.696 27.8.266c22.33.214 27.7.013 27.3-1.021-.27-.707-15.08-21.752-32.9-46.766-17.83-25.013-33.44-46.943-34.69-48.733-2.14-3.058-2.17-3.292-.46-3.873 5.54-1.883 18.21-7.652 23.14-10.542 3.12-1.832 9.77-7.393 14.77-12.359 7.4-7.342 9.87-10.61 13.26-17.5 6.64-13.523 8.42-21.826 8.42-39.472 0-17.53-1.79-26.012-8.22-39-12.53-25.34-38.28-40.781-74.13-44.46-5.83-.599-36.18-1.04-71.53-1.04H1728v132.5zm-1416.807-1c31.19 71.5 56.942 130.563 57.227 131.25.405.98-4.611 1.245-23.201 1.229l-23.719-.021-43.909-103.729c-24.15-57.051-44.21-104.079-44.578-104.507-.367-.427-20.618 46.26-45.001 103.75L143.678 366H98.102l1.359-3.25c3.483-8.33 111.833-256.431 112.674-258.003.879-1.642 2.641-1.765 21.653-1.517l20.696.27 56.709 130zM554 235v132h45.99l.255-92.443.255-92.443 71.5 92.433 71.5 92.433 20.25.01L784 367V103h-46.989l-.256 90.003-.255 90.003-69.5-89.951-69.5-89.951-21.75-.052L554 103v132zm1306-87.584c14.45 3.07 26.45 11.499 31.46 22.096 10.01 21.152 2.21 45.417-18.04 56.172-12.03 6.386-13.85 6.607-58.17 7.052l-40.25.405V146l39.25.017c29.53.013 40.86.36 45.75 1.399z" clip-rule="evenodd"/></svg>